<svg width="75" height="75" viewBox="0 0 75 75" fill="none" xmlns="http://www.w3.org/2000/svg">
<g clip-path="url(#clip0)">
<path d="M23.1764 64.6738H25.5718V67.0692H23.1764V64.6738Z" fill="white"/>
<path d="M17.1865 67.0691H19.5819V69.4645H17.1865V67.0691Z" fill="white"/>
<path d="M27.9655 67.0691H30.3609V69.4645H27.9655V67.0691Z" fill="white"/>
<path d="M59.106 29.0936V23.9532H61.5013V5.98831C61.5013 2.68655 58.8148 0 55.5131 0C52.2113 0 49.5247 2.68655 49.5247 5.98831V23.9532H51.92V29.0936C48.1305 29.8158 44.7353 31.6521 42.0884 34.2544C40.1159 32.0866 37.7651 30.2556 35.1528 28.9334V9.58129C37.7949 9.58129 39.9434 7.43272 39.9434 4.79065C39.9434 2.14854 37.7949 0 35.1528 0H13.5949C10.9527 0 8.80425 2.14854 8.80425 4.79065C8.80425 7.43272 10.9527 9.58129 13.5949 9.58129V28.9334C5.56563 32.9918 0.420593 41.2954 0.420593 50.3018C0.420593 57.1059 3.32995 63.6111 8.40304 68.1527C12.8545 72.1374 18.4299 74.2573 24.3358 74.2573C25.2528 74.2573 26.1774 74.2059 27.1083 74.103C34.0954 73.3282 40.4563 69.3843 44.3739 63.4667C47.5165 65.7241 51.3557 67.0691 55.5131 67.0691C66.0792 67.0691 74.6755 58.472 74.6755 47.9065C74.6755 38.5696 67.9593 30.7813 59.106 29.0936ZM51.92 5.98831C51.92 4.00761 53.5323 2.39532 55.5131 2.39532C57.4937 2.39532 59.106 4.00761 59.106 5.98831V21.5579H51.92V5.98831ZM54.3154 23.9532H56.7107V28.8047C56.313 28.7796 55.9177 28.7439 55.5131 28.7439C55.1084 28.7439 54.713 28.7796 54.3154 28.8047V23.9532ZM2.81592 50.3018C2.81592 41.9673 7.71534 34.3 15.2978 30.7679L15.9902 30.4468V28.7439H25.5715V26.3485H15.9902V23.9532H27.9668V21.5579H15.9902V19.1626H25.5715V16.7673H15.9902V14.3719H27.9668V11.9766H15.9902V7.18597H13.5949C12.2739 7.18597 11.1996 6.1117 11.1996 4.79065C11.1996 3.4696 12.2739 2.39532 13.5949 2.39532H35.1528C36.4738 2.39532 37.5481 3.4696 37.5481 4.79065C37.5481 6.1117 36.4738 7.18597 35.1528 7.18597H20.7809V9.58129H32.7575V30.4468L33.4498 30.769C36.1242 32.0147 38.523 33.8456 40.4861 36.0544C38.8598 38.1094 37.6569 40.5047 36.9815 43.1158H33.9551C30.0101 43.1158 26.5633 45.2527 24.6838 48.424C23.0253 44.6012 19.2177 41.9182 14.7925 41.9182H6.4089V43.1158C6.4089 49.0597 11.2452 53.8948 17.1878 53.8948H23.1762V59.9199C17.837 60.234 14.9855 62.6305 12.2235 64.9562C11.5539 65.5193 10.9013 66.0486 10.2305 66.555C10.1551 66.4895 10.0738 66.4357 9.99957 66.3685C5.43521 62.2807 2.81592 56.4252 2.81592 50.3018ZM36.6223 50.9907C35.1709 52.0925 33.3972 52.6972 31.5598 52.6972H25.6563C26.2399 48.6392 29.7382 45.5111 33.9551 45.5111H36.5171C36.4177 46.2983 36.3504 47.093 36.3504 47.9065C36.3504 48.9579 36.458 49.9831 36.6223 50.9907ZM23.0914 51.4995H17.1878C12.9709 51.4995 9.47264 48.3714 8.88905 44.3135H14.7925C19.0095 44.3135 22.5077 47.4416 23.0914 51.4995ZM26.8435 71.7217C21.5569 72.3147 16.454 71.0118 12.1972 68.0749C12.7364 67.6486 13.2598 67.2164 13.7686 66.7889C16.5206 64.469 19.1224 62.2784 24.3738 62.2784C29.6259 62.2784 32.2259 64.4679 34.9791 66.7878C35.4867 67.2141 36.0089 67.6463 36.5481 68.0714C33.675 70.0498 30.3475 71.334 26.8435 71.7217ZM38.5101 66.5492C37.8405 66.0439 37.1902 65.517 36.523 64.955C33.761 62.6305 30.9107 60.234 25.5715 59.9199V55.0925H31.5598C33.5621 55.0925 35.506 54.5346 37.1891 53.503C38.1902 56.7749 40.0563 59.6649 42.5054 61.9369C41.3855 63.6702 40.0358 65.2187 38.5101 66.5492ZM55.5131 64.6738C46.2668 64.6738 38.7457 57.1527 38.7457 47.9065C38.7457 38.6603 46.2668 31.1392 55.5131 31.1392C64.7592 31.1392 72.2803 38.6603 72.2803 47.9065C72.2803 57.1527 64.7592 64.6738 55.5131 64.6738Z" fill="white"/>
<path d="M55.5123 33.5345C47.5871 33.5345 41.1403 39.9813 41.1403 47.9064C41.1403 55.8315 47.5871 62.2783 55.5123 62.2783C63.4374 62.2783 69.8843 55.8315 69.8843 47.9064C69.8843 39.9813 63.4374 33.5345 55.5123 33.5345ZM55.5123 59.883C48.9082 59.883 43.5356 54.5105 43.5356 47.9064C43.5356 41.3023 48.9082 35.9298 55.5123 35.9298C59.4193 35.9298 62.8825 37.8187 65.0708 40.7204H56.7099C50.7673 40.7204 45.931 45.5556 45.931 51.4994V52.6971H54.3146C60.2573 52.6971 65.0936 47.862 65.0936 41.9181V40.7514C66.5906 42.7503 67.4889 45.2222 67.4889 47.9064C67.4889 54.5105 62.1164 59.883 55.5123 59.883ZM62.6135 43.1158C62.0298 47.1736 58.5316 50.3017 54.3146 50.3017H48.4111C48.9948 46.2439 52.493 43.1158 56.7099 43.1158H62.6135Z" fill="white"/>
</g>
<defs>
<clipPath id="clip0">
<rect width="75" height="74.2574" fill="white"/>
</clipPath>
</defs>
</svg>
