<svg width="75" height="75" viewBox="0 0 75 75" fill="none" xmlns="http://www.w3.org/2000/svg">
<path d="M71.5573 11.4801L58.5052 6.04246C57.0735 5.44612 55.4314 5.44627 53.9998 6.0426L47.7332 8.65281C47.173 8.88628 46.9081 9.52933 47.1414 10.0895C47.3747 10.6497 48.0178 10.9148 48.5781 10.6813L54.8447 8.07096C55.739 7.69828 56.7654 7.69813 57.6604 8.07081L70.7117 13.5082C71.9812 14.0377 72.8017 15.2285 72.8017 16.5415V63.5263C72.8017 65.3534 71.2324 66.8398 69.3036 66.8398H67.5223C66.9154 66.8398 66.4237 67.3315 66.4237 67.9384C66.4237 68.5453 66.9154 69.037 67.5223 69.037H69.3036C72.4439 69.037 74.9989 66.565 74.9989 63.5263V16.5415C74.9989 14.3389 73.648 12.3523 71.5573 11.4801Z" fill="white"/>
<path d="M62.7349 66.8399H44.2749C45.035 65.976 45.4512 64.8798 45.4512 63.7199C45.4512 62.5622 45.0321 61.5012 44.3386 60.6785C44.7759 60.4554 45.1808 60.1635 45.5382 59.8062C46.4305 58.9137 46.9219 57.727 46.9219 56.4644C46.9219 55.261 46.4689 54.1617 45.7255 53.3265C46.0937 53.118 46.4364 52.8596 46.7435 52.5523C47.6359 51.6601 48.1273 50.4734 48.1273 49.2106C48.1273 48.0106 47.6771 46.9142 46.938 46.0796C47.3122 45.8696 47.6609 45.608 47.9734 45.296C48.8653 44.4022 49.3563 43.2158 49.3563 41.955C49.3563 39.3485 47.2364 37.228 44.6306 37.228H39.7043V16.5415C39.7043 15.2284 40.5247 14.0376 41.7936 13.5083L43.7918 12.6764C44.3519 12.4431 44.617 11.8001 44.3837 11.2397C44.1504 10.6796 43.5074 10.4142 42.9472 10.6478L40.9483 11.4801C38.8578 12.3521 37.507 14.339 37.507 16.5415V37.2281H32.9167C34.4453 32.3977 34.3151 27.3564 32.5312 21.5054C32.2603 20.6193 31.7212 19.8604 30.9719 19.3106C30.227 18.7643 29.3443 18.4752 28.419 18.4752C27.2269 18.4752 26.1184 18.9513 25.2976 19.8157C24.4771 20.6799 24.0593 21.8114 24.1211 23.0015C24.4646 29.6075 21.4174 31.8812 17.2001 35.0284C15.8115 36.0644 14.294 37.1977 12.8024 38.5874V37.1474C12.8024 36.5405 12.3107 36.0488 11.7038 36.0488H1.09863C0.491748 36.0488 0 36.5405 0 37.1474V68.3061C0 68.913 0.491748 69.4048 1.09863 69.4048H11.7041C12.311 69.4048 12.8027 68.913 12.8027 68.3061V65.5423C14.8894 65.7407 16.4135 66.1566 17.8941 67.2914C18.8662 68.0364 20.0644 68.4467 21.2681 68.4467H40.6437C41.4353 68.8326 42.3129 69.0371 43.2025 69.0371H62.7347C63.3416 69.0371 63.8333 68.5454 63.8333 67.9385C63.8333 67.3316 63.3416 66.8399 62.7349 66.8399ZM19.2308 65.5474C17.1592 63.9599 14.9452 63.5189 12.8027 63.3338V50.5055C12.8027 49.8986 12.311 49.4069 11.7041 49.4069C11.0972 49.4069 10.6054 49.8986 10.6054 50.5055V67.2077H2.19727V38.2462H10.6054V45.7185C10.6054 46.3254 11.0972 46.8172 11.7041 46.8172C12.311 46.8172 12.8027 46.3254 12.8027 45.7185V41.7085C14.6405 39.6804 16.6084 38.2119 18.5144 36.7895C22.7345 33.6406 26.7203 30.6661 26.3159 22.8875C26.2856 22.3052 26.4899 21.7517 26.8916 21.3287C27.2932 20.9055 27.8359 20.6726 28.4195 20.6726C28.874 20.6726 29.3071 20.8142 29.6723 21.0824C30.0369 21.3498 30.299 21.7184 30.4302 22.1474C32.2471 28.1072 32.2187 33.1213 30.3407 37.9273C30.2086 38.2654 30.2521 38.6468 30.4568 38.9467C30.6614 39.2465 31.0009 39.4259 31.3639 39.4259H44.6309C46.0251 39.4259 47.1593 40.5607 47.1593 41.9556C47.1593 42.6302 46.8961 43.2655 46.4199 43.7429C45.9409 44.2207 45.3057 44.4839 44.6309 44.4839H40.1176C39.5108 44.4839 39.0191 44.9757 39.0191 45.5826C39.0191 46.1894 39.5108 46.6812 40.1176 46.6812H43.4018C44.7959 46.6812 45.9301 47.816 45.9301 49.2111C45.9301 49.8869 45.6674 50.5219 45.1898 50.9993C44.7126 51.4767 44.0776 51.7394 43.4018 51.7394H40.1176C39.5108 51.7394 39.0191 52.2312 39.0191 52.8381C39.0191 53.445 39.5108 53.9367 40.1176 53.9367H42.1961C43.5904 53.9367 44.7246 55.0709 44.7246 56.465C44.7246 57.1406 44.4617 57.7758 43.9844 58.2532C43.506 58.7316 42.8708 58.9949 42.1961 58.9949H40.7254H38.9119C38.305 58.9949 37.8134 59.4866 37.8134 60.0935C37.8134 60.7004 38.305 61.1921 38.9119 61.1921H40.7254C42.1197 61.1921 43.2539 62.3264 43.2539 63.7204C43.2539 64.396 42.9907 65.0318 42.5146 65.509C42.0684 65.9542 41.3636 66.2382 40.836 66.2476C40.7996 66.2482 21.2681 66.2502 21.2681 66.2502C20.5451 66.2495 19.8214 66.0002 19.2308 65.5474Z" fill="white"/>
<path d="M60.2174 17.0295C60.2174 14.7209 58.3392 12.8427 56.0305 12.8427C53.722 12.8427 51.8438 14.7209 51.8438 17.0295C51.8438 19.3381 53.722 21.2163 56.0305 21.2163C58.3392 21.2163 60.2174 19.3381 60.2174 17.0295ZM54.041 17.0295C54.041 15.9325 54.9335 15.04 56.0305 15.04C57.1276 15.04 58.0201 15.9325 58.0201 17.0295C58.0201 18.1265 57.1276 19.0191 56.0305 19.0191C54.9335 19.0191 54.041 18.1267 54.041 17.0295Z" fill="white"/>
<path d="M56.7189 54.5163H54.7485C53.7107 54.5163 52.8664 53.6719 52.8664 52.634C52.8664 52.0271 52.3746 51.5353 51.7677 51.5353C51.1609 51.5353 50.6691 52.0271 50.6691 52.634C50.6691 54.8455 52.438 56.6502 54.635 56.7106V59.142C54.635 59.7489 55.1267 60.2407 55.7336 60.2407C56.3405 60.2407 56.8323 59.7489 56.8323 59.142V56.7106C59.0294 56.6502 60.7984 54.8455 60.7984 52.634V51.113C60.7984 49.702 59.8967 48.4611 58.5547 48.0249L53.5918 46.4128C53.1578 46.2718 52.8664 45.8707 52.8664 45.4145V43.2367C52.8664 42.3938 53.552 41.708 54.3949 41.708H57.0727C57.9155 41.708 58.6012 42.3938 58.6012 43.2367C58.6012 43.8436 59.0929 44.3353 59.6998 44.3353C60.3067 44.3353 60.7985 43.8436 60.7985 43.2367C60.7985 41.1823 59.1271 39.5107 57.0727 39.5107H56.8323V37.0823C56.8323 36.4754 56.3405 35.9837 55.7336 35.9837C55.1267 35.9837 54.635 36.4754 54.635 37.0823V39.5107H54.3948C52.3405 39.5107 50.6689 41.1821 50.6689 43.2367V45.4145C50.6689 46.8256 51.5705 48.0664 52.9126 48.5026L57.8754 50.1146C58.3094 50.2557 58.6009 50.6569 58.6009 51.113V52.634C58.6012 53.6719 57.7567 54.5163 56.7189 54.5163Z" fill="white"/>
</svg>
