<svg width="75" height="75" viewBox="0 0 75 75" fill="none" xmlns="http://www.w3.org/2000/svg">
<g clip-path="url(#clip0)">
<path d="M66.8123 38.9216C65.4867 38.9216 39.9801 38.9216 38.5999 38.9216V29.3959L41.6492 27.6499C42.8594 28.7262 47.2979 29.9384 51.5857 28.3867C52.1564 28.1803 52.4514 27.5504 52.245 26.9799C52.0386 26.4091 51.4082 26.1139 50.8382 26.3206C48.5952 27.1322 46.1567 27.1404 43.9039 26.359L53.323 20.966C53.8497 20.6645 54.0321 19.9931 53.7306 19.4667C53.429 18.94 52.7578 18.7575 52.2313 19.0591L43.0034 24.3426C44.2766 17.9992 51.0617 14.2646 57.1928 16.8118C57.4989 16.939 57.689 17.258 57.6552 17.5878C57.415 19.9306 56.3804 22.1414 54.7421 23.8132C54.3174 24.2465 54.3243 24.9422 54.7578 25.3669C55.1909 25.7917 55.8868 25.7845 56.3113 25.3512C58.2967 23.3254 59.5501 20.6479 59.841 17.812C59.973 16.5247 59.2306 15.2789 58.0357 14.7826C50.2475 11.5471 41.5241 16.7362 40.6628 25.1359C40.6438 25.3203 40.6447 25.5034 40.6606 25.684L38.5999 26.8639V18.2101C38.7728 18.1327 38.9393 18.0379 39.095 17.9221C44.9159 13.5916 44.923 4.85923 39.095 0.523404C38.1566 -0.174623 36.846 -0.174476 35.9075 0.523404C30.0868 4.85381 30.0794 13.5864 35.9075 17.9221C36.0632 18.0379 36.2298 18.1327 36.4025 18.2101V26.8639L34.3418 25.684C34.3575 25.5034 34.3586 25.3203 34.3397 25.136C33.4796 16.7467 24.7643 11.5432 16.9666 14.7825C15.7718 15.2789 15.0293 16.5247 15.1614 17.8117C16.0218 26.2008 24.7366 31.4046 32.5343 28.1651C32.8393 28.0384 33.1143 27.8625 33.3532 27.6499L36.4025 29.3958V38.9215C35.8349 38.9215 8.80905 38.9215 8.19007 38.9215H8.18985C6.67832 38.9215 5.4481 40.1044 5.38936 41.6146C4.67785 59.7634 19.1835 74.9997 37.5014 74.9997C55.7869 74.9997 70.3316 59.8059 69.6128 41.6132C69.5533 40.1041 68.3231 38.9216 66.8123 38.9216ZM21.6795 20.966L31.1016 26.3608C24.8383 28.5426 18.0415 24.3562 17.3472 17.5876C17.3135 17.258 17.5035 16.9388 17.8096 16.8117H17.8097C23.9498 14.2604 30.7282 18.0104 31.9989 24.3424L22.7712 19.059C22.2447 18.7573 21.5731 18.94 21.2719 19.4665C20.9705 19.993 21.1529 20.6645 21.6795 20.966ZM37.219 2.28641C37.3022 2.2246 37.4017 2.19369 37.5012 2.19369C37.6008 2.19369 37.7003 2.2246 37.7835 2.28641C42.1576 5.54055 42.4158 11.8459 38.5999 15.4708V8.21353C38.5999 7.60678 38.1081 7.11488 37.5012 7.11488C36.8943 7.11488 36.4025 7.60678 36.4025 8.21353V15.4707C32.5886 11.8478 32.8431 5.54187 37.219 2.28641ZM24.7551 69.9496C14.1224 64.9258 7.10271 53.9496 7.58527 41.7002C7.59817 41.3743 7.86375 41.119 8.19007 41.119H14.1379C14.9477 41.6557 15.8794 42.0241 16.7838 42.382C18.4721 43.0498 20.0668 43.6805 20.833 45.3037C21.8138 47.3824 23.6501 48.2206 25.1258 48.8942C26.1378 49.3561 27.0118 49.755 27.2357 50.38C27.4556 50.993 27.2016 52.0756 26.5011 53.5105C26.185 54.1581 25.889 54.757 25.6136 55.3141C22.8779 60.8486 21.9561 62.7131 24.191 66.8389C24.7871 67.9396 24.9767 69.013 24.7551 69.9496ZM37.5012 72.8026C33.7285 72.8026 30.1175 72.0994 26.7899 70.8199C27.2706 69.2713 27.0481 67.5003 26.123 65.7923C24.43 62.667 24.9114 61.693 27.5834 56.2876C27.8603 55.7275 28.1579 55.1254 28.4758 54.4742C29.4835 52.4095 29.7467 50.8729 29.3041 49.6383C28.7672 48.1408 27.3797 47.5075 26.038 46.8952C24.711 46.2895 23.4576 45.7174 22.82 44.3659H22.8198C22.0364 42.7057 20.7607 41.7814 19.4158 41.119H39.5845C40.5784 42.4128 42.0348 43.3529 43.9251 43.9165C45.995 44.5335 47.6315 44.6796 48.8264 44.7862C49.7243 44.8663 50.4335 44.9296 50.7671 45.1459C50.8777 45.2176 51.1714 45.4081 51.3301 46.6575C51.5473 48.3689 51.023 49.4557 50.4158 50.7139C49.8062 51.9774 49.1152 53.4094 49.3288 55.4395C49.6627 58.643 49.8992 61.7256 51.7946 62.5362C52.8546 62.9894 53.9344 62.5171 54.842 61.8132C56.3148 60.671 58.2119 58.2433 59.9166 55.3192C60.2222 54.7948 60.0449 54.1223 59.5208 53.8166C58.9968 53.5113 58.324 53.6883 58.0182 54.2124C56.4714 56.8657 54.7385 59.1128 53.4955 60.0767C52.9054 60.5344 52.6568 60.5149 52.6586 60.5158C51.9422 60.1917 51.5769 55.8121 51.5142 55.2096C51.3659 53.8014 51.8428 52.8131 52.3949 51.6689C53.0578 50.295 53.8093 48.7376 53.51 46.3806C53.0753 42.959 51.1967 42.7915 49.0215 42.5974C47.8584 42.4936 46.4106 42.3644 44.5529 41.8105C43.9363 41.6267 43.3844 41.3959 42.8993 41.1188H61.5446C61.471 41.9749 61.4522 42.8411 61.4339 43.6882C61.4207 44.2956 61.4084 44.8693 61.3772 45.4391C61.3168 46.5501 60.9188 48.0434 60.2264 49.7578C59.999 50.3205 60.2711 50.9608 60.8338 51.188C61.3966 51.4156 62.0368 51.1432 62.264 50.5807C63.0569 48.6171 63.497 46.9275 63.5717 45.5587C63.653 44.0626 63.6139 42.5462 63.7522 41.1188H66.8125C67.1389 41.1188 67.4045 41.3742 67.4174 41.6999V41.7001C68.0912 58.6098 54.4903 72.8026 37.5012 72.8026Z" fill="white"/>
</g>
<defs>
<clipPath id="clip0">
<rect width="75" height="75" fill="white"/>
</clipPath>
</defs>
</svg>
