<svg width="75" height="75" viewBox="0 0 75 75" fill="none" xmlns="http://www.w3.org/2000/svg">
<path d="M69.8974 64.7948C68.93 64.7948 68.0247 65.0655 67.253 65.5349L46.6054 44.8873C46.5695 44.8513 46.5314 44.819 46.4923 44.7886C48.1102 42.7966 49.0821 40.2601 49.0821 37.5C49.0821 34.7435 48.1126 32.2102 46.4987 30.2193L60.5735 16.1446C62.0845 17.2954 63.9682 17.9806 66.0098 17.9806C70.967 17.9806 75 13.9476 75 8.99025C75 4.03299 70.967 0 66.0098 0C61.0524 0 57.0194 4.03299 57.0194 8.99025C57.0194 11.0318 57.7046 12.9155 58.8554 14.4264L44.7807 28.5011C42.7898 26.8874 40.2565 25.9179 37.5 25.9179C34.7435 25.9179 32.2102 26.8874 30.2193 28.5013L23.7199 22.0019C24.1894 21.2302 24.46 20.3249 24.46 19.3574C24.46 16.5439 22.171 14.2549 19.3574 14.2549C16.5439 14.2549 14.2549 16.5439 14.2549 19.3574C14.2549 22.171 16.5439 24.46 19.3574 24.46C20.3249 24.46 21.2302 24.1894 22.0019 23.7199L28.5013 30.2193C26.8874 32.2102 25.9179 34.7435 25.9179 37.5C25.9179 39.0635 26.231 40.5547 26.7951 41.9167L11.3409 50.2877C10.1665 48.8602 8.38702 47.9482 6.39849 47.9482C2.87041 47.9482 0 50.8186 0 54.3466C0 57.8747 2.87041 60.7451 6.39849 60.7451C9.92655 60.7451 12.7969 57.8747 12.7969 54.3466C12.7969 53.6765 12.693 53.0303 12.501 52.4229L27.9559 44.0516C30.0462 47.087 33.5438 49.0821 37.5 49.0821C37.9439 49.0821 38.3812 49.0546 38.8123 49.0056L40.4229 56.2534C38.7407 57.0884 37.581 58.824 37.581 60.8261C37.581 63.6397 39.87 65.9287 42.6835 65.9287C45.4971 65.9287 47.7862 63.6397 47.7862 60.8261C47.7862 58.0499 45.5571 55.7859 42.7948 55.7263L41.1841 48.4778C42.5081 48.0324 43.7261 47.3553 44.7888 46.4923C44.8192 46.5314 44.8514 46.5695 44.8874 46.6054L65.5349 67.253C65.0655 68.0247 64.7948 68.93 64.7948 69.8974C64.7948 72.7109 67.0838 75 69.8974 75C72.7109 75 75 72.7109 75 69.8974C75 67.0838 72.7109 64.7948 69.8974 64.7948ZM6.39849 58.3153C4.21021 58.3153 2.4298 56.5349 2.4298 54.3466C2.4298 52.1584 4.21021 50.378 6.39849 50.378C8.58675 50.378 10.3672 52.1584 10.3672 54.3466C10.3672 56.5349 8.58675 58.3153 6.39849 58.3153ZM45.3564 60.8261C45.3564 62.2999 44.1574 63.4989 42.6835 63.4989C41.2098 63.4989 40.0108 62.2999 40.0108 60.8261C40.0108 59.3524 41.2098 58.1534 42.6835 58.1534C44.1574 58.1534 45.3564 59.3524 45.3564 60.8261ZM66.0098 2.4298C69.6272 2.4298 72.5702 5.37278 72.5702 8.99025C72.5702 12.6078 69.6272 15.5507 66.0098 15.5507C62.3922 15.5507 59.4493 12.6078 59.4493 8.99025C59.4493 5.37278 62.3922 2.4298 66.0098 2.4298ZM16.6847 19.3574C16.6847 17.8837 17.8837 16.6847 19.3574 16.6847C20.8312 16.6847 22.0302 17.8837 22.0302 19.3574C22.0302 20.8312 20.8312 22.0302 19.3574 22.0302C17.8837 22.0302 16.6847 20.8312 16.6847 19.3574ZM37.5 46.6522C32.4535 46.6522 28.3478 42.5465 28.3478 37.5C28.3478 32.4535 32.4535 28.3478 37.5 28.3478C42.5465 28.3478 46.6522 32.4535 46.6522 37.5C46.6522 42.5465 42.5465 46.6522 37.5 46.6522ZM69.8974 72.5702C68.4236 72.5702 67.2246 71.3712 67.2246 69.8974C67.2246 68.4236 68.4236 67.2246 69.8974 67.2246C71.3712 67.2246 72.5702 68.4236 72.5702 69.8974C72.5702 71.3712 71.3712 72.5702 69.8974 72.5702Z" fill="white"/>
<path d="M37.4991 31.1015C36.8282 31.1015 36.2842 31.6455 36.2842 32.3164C36.2842 32.9874 36.8282 33.5313 37.4991 33.5313C39.6874 33.5313 41.4678 35.3117 41.4678 37.5C41.4678 38.1709 42.0117 38.7149 42.6826 38.7149C43.3536 38.7149 43.8976 38.1709 43.8976 37.5C43.8976 33.9719 41.0272 31.1015 37.4991 31.1015Z" fill="white"/>
<path d="M66.0108 7.61341C66.77 7.61341 67.3877 8.23104 67.3877 8.99026C67.3877 9.66121 67.9316 10.2052 68.6026 10.2052C69.2735 10.2052 69.8175 9.66121 69.8175 8.99026C69.8175 6.89126 68.1098 5.18359 66.0108 5.18359C65.3398 5.18359 64.7959 5.72755 64.7959 6.3985C64.7959 7.06945 65.3398 7.61341 66.0108 7.61341Z" fill="white"/>
</svg>
