<svg width="75" height="75" viewBox="0 0 75 75" fill="none" xmlns="http://www.w3.org/2000/svg">
<g clip-path="url(#clip0)">
<path d="M52.8595 43.9974C52.8548 43.9946 52.8507 43.9914 52.846 43.9886C52.7335 43.9238 46.726 41.6175 46.726 41.6175C46.0537 41.3597 45.2927 41.6283 44.9323 42.2524L44.6635 42.7179C43.6802 42.1704 43.0084 41.1908 42.8452 40.0856C44.7997 39.0588 46.4287 37.496 47.5378 35.5933C48.1168 35.4884 48.6958 35.3769 49.2643 35.2551C52.2847 34.6088 54.8172 32.6664 56.2123 29.926C57.6051 27.1898 57.6859 24.0053 56.4337 21.1889C55.5465 19.1927 54.519 17.2355 53.3796 15.3714C51.6178 12.4892 49.18 10.2089 46.3347 8.67624L51.8148 3.19598C52.3867 2.62403 52.3867 1.6966 51.8148 1.12449C51.2427 0.552684 50.3155 0.552684 49.7433 1.12449L45.2381 5.62969C44.1734 2.36873 41.1048 0.00518799 37.4929 0.00518799C33.881 0.00518799 30.8123 2.36859 29.7477 5.62954L25.2427 1.12464C24.6705 0.55283 23.7434 0.55283 23.1712 1.12464C22.5992 1.6966 22.5992 2.62403 23.1712 3.19613L28.657 8.68194C25.8211 10.2115 23.3898 12.4836 21.6294 15.3545C20.4742 17.2385 19.4346 19.2169 18.5394 21.2343C17.3003 24.0267 17.3886 27.1954 18.7815 29.9279C20.1873 32.6855 22.7285 34.6373 25.7539 35.2831C26.2656 35.3921 26.7838 35.4922 27.3015 35.587C28.4384 37.5404 30.1234 39.1355 32.1454 40.1613C31.9631 41.2353 31.3014 42.1832 30.341 42.7179L30.0722 42.2522C29.7121 41.6282 28.9513 41.3593 28.2784 41.6174C28.2784 41.6174 22.2712 43.9235 22.1584 43.9885C22.1536 43.9914 22.1492 43.9946 22.1444 43.9976C18.6985 45.4979 15.7663 47.9125 13.6278 51.0251C11.3209 54.383 10.1016 58.3112 10.1016 62.3852V73.5319C10.1016 74.3407 10.7575 74.9966 11.5662 74.9966H30.9298C31.7386 74.9966 32.3945 74.3407 32.3945 73.5319C32.3945 72.7231 31.7386 72.0672 30.9298 72.0672H26.8243V66.9433H48.1801V72.0672H44.1119C43.3031 72.0672 42.6472 72.7231 42.6472 73.5319C42.6472 74.3407 43.3031 74.9966 44.1119 74.9966H63.4383C64.2471 74.9966 64.903 74.3407 64.903 73.5319V62.3852C64.903 58.3114 63.6836 54.383 61.3768 51.0251C59.2381 47.9125 56.3057 45.4979 52.8595 43.9974ZM46.8433 44.8008L49.9882 46.0091L39.5929 64.0139H35.7505L46.8433 44.8008ZM37.493 2.93468C40.0342 2.93468 42.1558 4.76143 42.6166 7.17038C40.984 6.70856 39.2714 6.46441 37.5148 6.46309C37.51 6.46309 37.5061 6.46309 37.5013 6.46309C35.7341 6.46309 34.0109 6.70886 32.3687 7.17506C32.8274 4.76392 34.9501 2.93468 37.493 2.93468ZM21.3914 28.5973C20.4011 26.6548 20.3377 24.4042 21.2171 22.4222C22.06 20.5226 23.0389 18.6599 24.1268 16.8857C27.0042 12.1931 32.0031 9.39257 37.5013 9.39257H37.5127C43.012 9.39639 48.0092 12.2027 50.8801 16.8992C51.9532 18.6549 52.9212 20.4985 53.7569 22.3788C54.6487 24.3848 54.592 26.6514 53.6017 28.5971C52.6357 30.4947 50.9001 31.8524 48.8232 32.3489C49.0181 31.5033 49.1246 30.6241 49.1246 29.72V26.2425C49.1246 22.0403 45.7059 18.6216 41.5039 18.6216C40.0484 18.6216 38.6353 19.037 37.4215 19.808C36.2079 19.0369 34.7948 18.6216 33.3394 18.6216C29.1372 18.6216 25.7185 22.0403 25.7185 26.2425V29.72C25.7185 30.6185 25.8237 31.4924 26.0163 32.3333C24.0126 31.8027 22.3396 30.4575 21.3914 28.5973ZM28.6477 29.72V26.2425C28.6477 23.6556 30.7523 21.551 33.3392 21.551C34.4863 21.551 35.591 21.9704 36.4495 22.7318C37.0041 23.2235 37.8387 23.2235 38.3932 22.7318C39.2519 21.9704 40.3566 21.551 41.5037 21.551C44.0905 21.551 46.1951 23.6556 46.1951 26.2425V29.72C46.1951 34.5579 42.2592 38.4938 37.4214 38.4938C32.5836 38.4938 28.6477 34.5581 28.6477 29.72ZM34.9288 41.1533C35.7326 41.3285 36.5659 41.4233 37.4214 41.4233C38.3314 41.4233 39.2164 41.3155 40.0672 41.118C40.4947 42.8523 41.6221 44.3615 43.1988 45.2547L37.5021 55.1215L31.8054 45.2547C33.3715 44.3675 34.4948 42.8729 34.9288 41.1533ZM35.811 58.0507L33.8898 61.3784L25.0163 46.0093L28.161 44.8008L35.811 58.0507ZM13.0309 62.3855C13.0309 58.9064 14.0722 55.5518 16.0423 52.6841C17.6549 50.337 19.7958 48.4544 22.3004 47.1638L32.029 64.0141H26.8243V63.9218C26.8243 60.9979 25.6886 58.2462 23.6265 56.1736C23.0559 55.5998 22.1286 55.5977 21.5551 56.1683C20.9818 56.7388 20.9793 57.6662 21.5499 58.2396C23.062 59.7597 23.895 61.7777 23.895 63.922V72.0675H13.0309V62.3855ZM61.9736 72.0674H51.1095V63.9218C51.1095 61.7776 51.9425 59.7596 53.4546 58.2395C54.0253 57.6661 54.0228 56.7386 53.4493 56.1681C52.8759 55.5975 51.9487 55.6 51.378 56.1734C49.3159 58.2461 48.1801 61.0901 48.1801 64.0139H42.9754L52.7041 47.1635C55.2087 48.4541 57.3496 50.3369 58.9621 52.6838C60.9322 55.5515 61.9736 58.9061 61.9736 62.3852V72.0674Z" fill="white"/>
<path d="M10.876 9.2928C11.2562 7.23771 10.8168 5.15612 9.63855 3.43131C7.94865 0.957472 5.05312 -0.328655 2.08247 0.0772064C1.62549 0.139455 1.22476 0.413349 1.00037 0.816277C-0.457569 3.43644 -0.313299 6.60116 1.37679 9.07515C2.55497 10.7998 4.33412 11.9661 6.38701 12.3594C6.47972 12.3771 6.57214 12.3857 6.66353 12.3857C7.29218 12.3857 7.86532 11.9795 8.05995 11.3597L8.35477 10.4209L9.33645 10.4877C10.0784 10.5383 10.7406 10.0243 10.876 9.2928ZM7.43264 7.42211C6.77221 7.36235 6.13201 7.7619 5.91304 8.41883C5.9104 8.427 5.70681 9.075 5.70681 9.075C4.94342 8.70518 4.28637 8.1411 3.79555 7.42284C2.88072 6.0834 2.68797 4.42129 3.24044 2.9342C4.82639 2.96072 6.30498 3.74446 7.21967 5.08376C7.71045 5.80204 7.9968 6.61932 8.06378 7.46503L7.43264 7.42211Z" fill="white"/>
<path d="M74.9277 31.5093C74.8655 31.0523 74.5916 30.6515 74.1886 30.4272C71.5683 28.9694 68.4038 29.1137 65.9297 30.8036C64.2051 31.9817 63.0388 33.761 62.6455 35.8136C62.5055 36.5441 62.9354 37.2637 63.6452 37.4867L64.584 37.7815L64.5173 38.7632C64.4667 39.5054 64.9805 40.1676 65.7119 40.3029C66.1943 40.3921 66.6778 40.4362 67.158 40.4362C68.7241 40.4362 70.2535 39.9672 71.5734 39.0656C74.0474 37.3756 75.333 34.4801 74.9277 31.5093ZM69.9212 36.6467C69.2029 37.1375 68.3856 37.4238 67.5398 37.4907L67.5828 36.8591C67.6415 36.1985 67.2428 35.559 66.5861 35.34C66.5779 35.3374 65.9299 35.1338 65.9299 35.1338C66.2997 34.3706 66.8638 33.7135 67.5821 33.2227C68.9213 32.3078 70.5835 32.1151 72.0707 32.6674C72.0443 34.2535 71.2604 35.7318 69.9212 36.6467Z" fill="white"/>
<path d="M39.3861 33.3789C39.9581 32.8071 39.9583 31.8796 39.3864 31.3074C38.8792 30.8001 38.0928 30.7425 37.5223 31.1346C36.9517 30.7425 36.1654 30.8001 35.6582 31.3074C35.0864 31.8795 35.0866 32.8069 35.6585 33.3789C36.1725 33.8925 36.8473 34.1494 37.5223 34.1494C38.1974 34.1494 38.8722 33.8925 39.3861 33.3789Z" fill="white"/>
<path d="M37.4207 74.9967C38.2297 74.9967 38.8854 74.3409 38.8854 73.5321C38.8854 72.7231 38.2297 72.0674 37.4207 72.0674C36.6118 72.0674 35.9561 72.7231 35.9561 73.5321C35.9561 74.3409 36.6118 74.9967 37.4207 74.9967Z" fill="white"/>
</g>
<defs>
<clipPath id="clip0">
<rect width="75" height="75" fill="white"/>
</clipPath>
</defs>
</svg>
