<svg width="27" height="27" viewBox="0 0 27 27" fill="none" xmlns="http://www.w3.org/2000/svg">
<path d="M21.5101 3.32045C17.083 -1.10658 9.91745 -1.10705 5.48994 3.32045C1.06302 7.74732 1.06233 14.9131 5.48994 19.3406L12.9013 26.752C13.232 27.0827 13.7681 27.0826 14.0987 26.752L21.5101 19.3406C25.937 14.9137 25.9377 7.748 21.5101 3.32045ZM20.3127 18.1432L13.5 24.9559L6.68732 18.1432C2.93082 14.3867 2.93082 8.27438 6.68732 4.51788C10.4439 0.761432 16.556 0.761327 20.3127 4.51788C24.0692 8.27433 24.0692 14.3867 20.3127 18.1432Z" fill="#F2EEEC"/>
<path d="M13.5 6.2666C10.7013 6.2666 8.436 8.53139 8.436 11.3306C8.436 14.1292 10.7009 16.3945 13.5 16.3945C16.2988 16.3945 18.564 14.1296 18.564 11.3306C18.564 8.53187 16.2992 6.2666 13.5 6.2666ZM15.8834 13.7139C15.8509 13.7139 15.0529 14.7011 13.5 14.7011C11.6371 14.7011 10.1294 13.1936 10.1294 11.3306C10.1294 9.46773 11.6369 7.95998 13.5 7.95998C16.5261 7.95998 17.9806 11.6167 15.8834 13.7139Z" fill="#F2EEEC"/>
</svg>
