<svg width="31" height="32" viewBox="0 0 31 32" fill="none" xmlns="http://www.w3.org/2000/svg">
<g clip-path="url(#clip0)">
<path d="M25.7235 17.3708C25.2224 16.7174 25.3658 16.4268 25.7235 15.8427C25.73 15.8361 29.8672 9.93475 30.2935 7.93341L30.296 7.93208C30.5079 7.20275 30.296 6.66675 29.2717 6.66675H25.8824C25.0196 6.66675 24.6217 7.12675 24.4086 7.64141C24.4086 7.64141 22.683 11.9054 20.2417 14.6694C19.4538 15.4681 19.0895 15.7241 18.6594 15.7241C18.4476 15.7241 18.1182 15.4681 18.1182 14.7387V7.93208C18.1182 7.05741 17.8767 6.66675 17.1624 6.66675H11.833C11.2917 6.66675 10.9701 7.07475 10.9701 7.45475C10.9701 8.28408 12.1908 8.47475 12.3173 10.8081V15.8707C12.3173 16.9801 12.1223 17.1841 11.6896 17.1841C10.5374 17.1841 7.74096 12.9027 6.08375 8.00275C5.74921 7.05208 5.42242 6.66808 4.55312 6.66808H1.1625C0.195042 6.66808 0 7.12808 0 7.64275C0 8.55208 1.15217 13.0734 5.35783 19.0468C8.16075 23.1241 12.1081 25.3334 15.6989 25.3334C17.8573 25.3334 18.1208 24.8428 18.1208 23.9988C18.1208 20.1028 17.9257 19.7348 19.0069 19.7348C19.508 19.7348 20.3709 19.9908 22.3859 21.9574C24.6889 24.2894 25.0674 25.3334 26.3565 25.3334H29.7458C30.712 25.3334 31.2015 24.8428 30.9199 23.8748C30.2754 21.8388 25.9199 17.6508 25.7235 17.3708Z" fill="#5E605E"/>
</g>
<defs>
<clipPath id="clip0">
<rect width="31" height="32" fill="white"/>
</clipPath>
</defs>
</svg>
